<?xml version="1.0" encoding="UTF-8"?>
<svg width="512pt" height="512pt" version="1.1" viewBox="0 0 512 512" xmlns="http://www.w3.org/2000/svg">
 <path d="m361.78 311.32c44.84 0 81.199 36.359 81.199 81.199 0 44.84-36.359 81.199-81.199 81.199s-81.199-36.359-81.199-81.199c0-44.84 36.359-81.199 81.199-81.199zm-105.78-89.199c20.918 0 37.859-16.961 37.859-37.859 0-20.918-16.961-37.859-37.859-37.859-20.918 0-37.859 16.961-37.859 37.859 0 20.918 16.961 37.859 37.859 37.859zm17.379 172.72c-0.019531-0.78125-0.039062-1.5586-0.039062-2.3398 0-31.262 16.219-58.723 40.68-74.461v-49.281l97.637-112.44c6.8398-7.8789 6-19.801-1.8789-26.621-7.8789-6.8398-19.801-6-26.621 1.8789l-88.102 101.46c-4.9609 5.6992-11.461 8.6797-19.02 8.6797h-40.059c-7.5586 0-14.059-2.9609-19.02-8.6797l-88.102-101.46c-6.8398-7.8789-18.762-8.7188-26.621-1.8789-7.8789 6.8398-8.7188 18.762-1.8789 26.621l97.637 112.44v87.961c16.141 14.859 32.82 30.32 49.559 46.762 4.6992 4.6016 12.238 4.6016 16.941 0 2.9609-2.9219 5.9414-5.8008 8.8984-8.6602zm27.762-210.58c0 24.922-20.199 45.121-45.121 45.121s-45.121-20.199-45.121-45.121c0-24.922 20.199-45.121 45.121-45.121s45.121 20.199 45.121 45.121zm-65.164 50.219h40.059c5.4609 0 9.9609-2.0586 13.539-6.1797l88.102-101.46c9.418-10.84 26.02-12.02 36.859-2.6016s12.02 26.02 2.6016 36.859l-95.863 110.38v42.359c12.141-6.2617 25.898-9.8008 40.5-9.8008 2.8008 0 5.5781 0.14063 8.3008 0.39844 53.277-51.82 91.621-100.52 91.621-163.3 0-56.781-46.078-102.86-102.86-102.86-51.422 0-77.137 25.719-102.86 77.137-25.719-51.422-51.422-77.137-102.86-77.137-56.781 0-102.86 46.078-102.86 102.86 0 80.758 63.402 138.2 140.44 208.92v-78.582l-95.863-110.38c-9.418-10.84-8.2383-27.441 2.6016-36.859s27.441-8.2383 36.859 2.6016l88.102 101.46c3.5781 4.1211 8.0781 6.1797 13.539 6.1797zm149.7 125.98-38.461 38.461-14.941-14.941c-4.7188-4.7188-12.379-4.7188-17.102 0-4.7188 4.7188-4.7188 12.379 0 17.102l23.5 23.5c4.7188 4.7188 12.379 4.7188 17.102 0l47-47c4.7188-4.7188 4.7188-12.379 0-17.102-4.7188-4.7188-12.379-4.7188-17.102 0z" fill="#a30b1e" fill-rule="evenodd"/>
</svg>
