<svg xmlns="http://www.w3.org/2000/svg" width="512" height="512" viewBox="0 0 512 512">
  <defs>
    <linearGradient id="g" x1="0" y1="0" x2="1" y2="1">
      <stop offset="0" stop-color="#0b1220"/>
      <stop offset="1" stop-color="#1f2a44"/>
    </linearGradient>
  </defs>
  <rect width="512" height="512" rx="112" fill="url(#g)"/>
  <path d="M256 124c-56 0-101 45-101 101 0 57 45 103 101 103s101-46 101-103c0-56-45-101-101-101zm0 44c31 0 57 26 57 57 0 32-26 59-57 59s-57-27-57-59c0-31 26-57 57-57z" fill="#e7ecff" opacity="0.95"/>
  <path d="M256 292c-72 0-132 44-156 108a20 20 0 0 0 19 27h274a20 20 0 0 0 19-27c-24-64-84-108-156-108zm0 40c46 0 86 22 108 55H148c22-33 62-55 108-55z" fill="#9bb3ff" opacity="0.95"/>
  <path d="M356 206h-34v-34a14 14 0 0 0-28 0v34h-34a14 14 0 0 0 0 28h34v34a14 14 0 0 0 28 0v-34h34a14 14 0 0 0 0-28z" fill="#5bf0c4"/>
</svg>
